# xmcd
#
# Track frame offsets:
#	150
#	22908
#	42031
#	69001
#	93622
#	131631
#	158331
#	178770
#	211338
#	235660
#	251577
#
# Disc length: 3673 seconds
#
# Revision: 2144031076
# Processed by: cddbd v1.5.2PL0 Copyright (c) Steve Scherf et al.
# Submitted via: EZCDAudioConverter 8.0.2.1
#
DISCID=810e570b
DTITLE=Various Artist - Tình Đẹp Hậu Giang
DYEAR=2010
DGENRE=Traditional Country
TTITLE0=Phi Nhung - Tủi phận
TTITLE1=Hương Thủy - Sóc Sờ Bai Sóc Trăng
TTITLE2=Phi Nhung, Duy Trường - Tình Đẹp Hậu Giang
TTITLE3=Quang Lê, Hà Phương - Bông ô môi
TTITLE4=Thành An, Lý Duy Vũ, Duy Trường - LK Nụ cười biệt ly, Nhớ người yêu, M
TTITLE4=ất nhau rồi
TTITLE5=Thanh Tuyền, Hương Lan - LK Hai lối mộng, Chuyện chúng mình, Tàu đêm n
TTITLE5=ăm cũ
TTITLE6=Quang Lê - Người em Vỹ Dạ
TTITLE7=Phi Nhung, Mai Thiên Vân - Tân cổ Áo mới Cà Mau
TTITLE8=Hương Lan - Dạ cổ hoài lang
TTITLE9=Hà Phương - Mời anh về thăm quê em
TTITLE10=Duy Trường, Quỳnh Dung - Người chông xa xứ
EXTD=
EXTT0=
EXTT1=
EXTT2=
EXTT3=
EXTT4=
EXTT5=
EXTT6=
EXTT7=
EXTT8=
EXTT9=
EXTT10=
PLAYORDER=
